<?xml version="1.0" standalone="no"?>
<!DOCTYPE svg PUBLIC "-//W3C//DTD SVG 20010904//EN"
 "http://www.w3.org/TR/2001/REC-SVG-20010904/DTD/svg10.dtd">
<svg version="1.0" xmlns="http://www.w3.org/2000/svg"
 width="1024.000000pt" height="1024.000000pt" viewBox="0 0 1024.000000 1024.000000"
 preserveAspectRatio="xMidYMid meet">
<metadata>
Created by potrace 1.11, written by Peter Selinger 2001-2013
</metadata>
<g transform="translate(0.000000,1024.000000) scale(0.100000,-0.100000)"
fill="#000000" stroke="none">
<path d="M6633 8130 c-50 -16 -101 -38 -112 -49 -12 -12 -34 -21 -50 -21 -17
0 -32 -4 -35 -9 -3 -5 -20 -11 -38 -14 -44 -7 -122 -30 -128 -38 -3 -3 -18 -9
-35 -12 -67 -12 -121 -31 -141 -48 -11 -11 -27 -19 -35 -19 -8 0 -45 -11 -84
-25 -38 -13 -80 -25 -93 -25 -12 0 -30 -4 -40 -9 -45 -23 -94 -41 -111 -41
-19 0 -59 -17 -123 -50 -20 -11 -44 -20 -54 -20 -9 0 -37 -7 -63 -15 -25 -8
-66 -21 -90 -29 -38 -12 -47 -19 -58 -52 -7 -21 -19 -42 -26 -46 -20 -13 -66
-9 -91 8 -27 17 -12 20 -238 -52 -51 -16 -57 -21 -63 -51 -10 -52 -68 -70
-124 -37 -25 15 -30 15 -59 0 -17 -9 -42 -16 -56 -16 -14 0 -28 -4 -31 -10 -3
-5 -16 -10 -28 -10 -12 0 -35 -7 -51 -15 -15 -8 -41 -15 -57 -15 -15 0 -31 -4
-34 -10 -3 -5 -15 -10 -26 -10 -10 0 -27 -9 -36 -20 -10 -11 -30 -20 -44 -20
-15 0 -40 -6 -56 -14 -15 -8 -55 -22 -88 -32 -33 -9 -64 -20 -69 -25 -6 -5
-21 -9 -35 -9 -32 -1 -128 -33 -144 -49 -6 -6 -23 -11 -38 -11 -15 0 -32 -7
-39 -15 -7 -8 -20 -15 -29 -15 -9 0 -29 -7 -45 -15 -15 -8 -38 -15 -49 -15
-12 0 -51 -11 -87 -23 -36 -13 -92 -32 -125 -41 -33 -10 -78 -26 -100 -36 -91
-41 -117 -50 -140 -50 -14 0 -33 -4 -43 -9 -26 -13 -84 -32 -112 -38 -14 -3
-39 -11 -57 -19 -17 -8 -39 -14 -50 -14 -10 0 -27 -7 -37 -15 -11 -8 -30 -15
-42 -15 -12 0 -27 -7 -34 -15 -7 -8 -27 -15 -45 -15 -18 0 -38 -7 -45 -15 -7
-8 -16 -12 -21 -9 -5 3 -23 -2 -41 -10 -17 -9 -43 -16 -58 -16 -14 0 -35 -7
-46 -15 -10 -8 -31 -15 -46 -15 -15 0 -29 -4 -32 -9 -3 -5 -21 -12 -41 -15
-19 -4 -40 -12 -47 -19 -7 -7 -44 -21 -83 -31 -38 -10 -79 -21 -90 -26 -11 -5
-54 -19 -95 -32 -72 -22 -75 -24 -83 -60 -8 -33 -14 -39 -48 -48 -34 -9 -39
-15 -39 -39 0 -21 -9 -36 -35 -55 -19 -15 -35 -35 -35 -44 0 -10 -16 -24 -40
-34 -35 -14 -40 -21 -40 -48 0 -69 21 -118 72 -169 54 -54 60 -84 18 -89 -14
-2 -33 -11 -43 -20 -19 -17 -19 -19 2 -112 6 -25 10 -70 11 -100 0 -30 5 -72
11 -94 17 -61 6 -84 -46 -97 -25 -6 -48 -15 -51 -20 -3 -5 -18 -9 -33 -9 -15
0 -36 -7 -47 -15 -10 -8 -25 -15 -33 -15 -8 0 -22 -6 -30 -13 -9 -8 -35 -19
-59 -26 -35 -10 -46 -19 -58 -47 -9 -20 -19 -32 -25 -28 -14 8 -29 -14 -29
-43 0 -19 -6 -23 -30 -23 -26 0 -31 -5 -36 -30 -4 -20 -13 -30 -24 -30 -34 0
-39 -61 -15 -170 8 -36 14 -79 15 -97 0 -27 7 -35 42 -55 l43 -23 6 -75 c9
-104 4 -127 -32 -134 -32 -6 -40 -35 -15 -55 9 -7 17 -40 21 -79 10 -104 15
-123 44 -151 20 -19 31 -47 44 -106 10 -44 22 -81 27 -83 44 -16 80 -82 80
-149 0 -28 44 -102 69 -118 6 -3 11 -22 11 -41 0 -19 6 -49 14 -67 7 -18 87
-107 177 -199 90 -91 213 -216 273 -277 60 -61 116 -111 124 -111 9 0 23 6 31
14 9 7 48 25 86 40 39 15 97 40 130 56 33 17 68 30 77 30 9 0 20 5 23 10 14
23 25 7 25 -35 0 -25 4 -64 10 -87 5 -24 12 -55 15 -70 3 -18 21 -38 50 -58
l45 -31 0 -64 c0 -63 2 -67 50 -127 50 -62 56 -80 53 -160 -1 -16 2 -28 6 -28
5 0 24 -15 43 -34 30 -29 36 -43 41 -95 7 -67 26 -112 56 -133 27 -19 111 -95
111 -101 0 -13 323 -343 374 -382 21 -16 53 -53 72 -82 43 -67 74 -83 114 -60
15 9 38 17 49 17 12 0 38 9 58 20 21 11 48 20 60 20 12 0 23 5 25 11 2 5 24
13 48 16 25 3 47 9 50 12 10 12 65 38 110 51 25 8 51 20 58 27 7 7 20 13 27
13 8 0 19 9 25 20 6 11 17 20 26 20 8 0 32 11 54 25 22 14 42 25 45 25 15 0
135 61 142 73 4 7 28 21 53 31 25 10 70 30 100 44 30 14 71 33 90 41 19 9 53
27 75 41 45 29 129 70 195 96 25 9 52 23 60 29 8 7 47 29 85 49 39 20 77 40
85 45 8 5 35 18 60 29 38 18 102 52 160 84 8 4 26 13 40 19 14 5 42 19 63 30
21 10 44 19 51 19 7 0 21 9 30 19 10 11 43 32 74 46 32 15 64 31 72 36 8 5 22
12 30 15 8 3 23 10 32 15 10 5 24 9 31 9 7 0 37 18 67 40 29 22 69 45 89 51
20 7 54 22 76 34 22 12 59 28 83 35 24 7 48 22 53 31 5 10 26 25 47 34 20 9
60 27 87 40 28 13 66 29 85 36 47 17 120 59 120 69 0 5 13 11 29 15 35 7 217
100 246 124 11 9 38 23 60 30 22 8 57 25 77 38 21 12 42 23 48 23 16 0 85 37
98 53 6 7 36 22 67 32 30 11 55 23 55 27 0 4 7 8 16 8 9 0 28 6 42 14 15 8 34
17 42 21 20 8 54 28 71 41 13 11 143 78 199 103 14 6 39 20 55 31 17 11 50 29
75 41 25 11 77 36 115 55 39 19 78 34 87 34 9 0 23 9 30 19 8 11 32 27 53 37
22 9 77 34 122 55 45 22 86 39 91 39 23 0 37 39 43 124 4 50 11 105 14 121 6
29 3 33 -44 63 -28 17 -51 37 -51 44 0 8 21 20 46 27 54 16 70 38 79 108 6 44
4 54 -14 72 -12 12 -28 21 -36 21 -15 0 -31 42 -22 57 3 5 26 19 51 32 l46 22
0 72 0 72 -47 26 c-48 25 -48 26 -47 75 0 27 2 60 5 73 3 18 -2 28 -19 37 -13
6 -39 27 -58 45 -34 33 -35 35 -29 95 7 59 6 61 -24 86 -17 15 -44 29 -61 33
l-30 7 0 78 c0 79 -12 110 -44 110 -7 0 -21 9 -31 20 -10 11 -28 20 -40 20
-12 0 -32 11 -45 25 -13 14 -30 25 -37 25 -8 0 -21 7 -29 15 -9 8 -25 15 -37
15 -12 0 -28 9 -35 20 -15 24 -85 70 -107 70 -9 0 -31 11 -49 25 -18 14 -38
25 -43 25 -6 0 -13 7 -17 15 -3 8 -14 15 -25 15 -10 0 -33 14 -51 30 -18 17
-38 30 -45 30 -12 0 -45 31 -45 42 0 4 13 9 30 13 16 4 32 11 35 16 4 5 17 9
31 9 13 0 24 5 24 10 0 16 49 55 77 60 14 3 29 12 33 20 19 37 42 186 48 300
4 69 12 132 17 140 6 8 13 74 16 145 4 72 10 144 14 160 4 17 9 55 12 86 l5
55 -44 19 c-72 31 -78 40 -78 116 0 77 -6 99 -26 99 -8 0 -17 7 -20 15 -4 8
-14 15 -23 15 -10 0 -25 6 -35 13 -16 11 -17 20 -8 68 6 29 14 62 17 71 5 12
1 20 -11 24 -48 16 -82 35 -88 50 -3 8 -6 47 -6 85 0 67 -1 71 -27 82 -16 7
-47 25 -70 40 -24 15 -62 34 -85 44 -24 9 -50 22 -58 28 -8 7 -34 20 -57 31
-24 10 -43 21 -43 25 0 4 -10 11 -22 15 -13 4 -40 18 -60 30 -21 13 -42 24
-47 24 -19 0 -161 71 -161 81 0 5 -12 12 -27 15 -15 4 -42 18 -61 31 -45 30
-82 28 -199 -7z m-3963 -2031 c0 -10 -4 -19 -9 -19 -12 0 -23 29 -15 41 8 14
24 0 24 -22z m-205 -179 c18 -11 52 -41 76 -67 24 -27 56 -55 70 -63 90 -52
86 -47 92 -134 6 -100 11 -113 51 -133 59 -30 66 -41 66 -108 0 -47 -4 -64
-15 -69 -8 -3 -15 -17 -15 -31 0 -24 9 -30 38 -26 9 1 12 -24 12 -96 0 -54 7
-143 15 -198 18 -123 18 -115 0 -115 -9 0 -21 11 -27 25 -12 26 -37 34 -39 13
-1 -7 -1 -29 0 -49 2 -20 -2 -40 -7 -43 -10 -6 -71 44 -199 161 l-73 66 0 64
c0 78 -9 97 -59 123 -47 24 -61 68 -61 194 0 46 -5 97 -11 113 -6 15 -14 89
-19 163 -4 74 -10 144 -14 155 -5 16 3 26 36 47 53 33 45 32 83 8z m1510 10
c3 -6 -4 -10 -17 -10 -18 0 -20 2 -8 10 19 12 18 12 25 0z m-725 -740 c0 -5
-5 -10 -11 -10 -5 0 -7 5 -4 10 3 6 8 10 11 10 2 0 4 -4 4 -10z m-1257 -305
l52 0 3 -53 c2 -42 8 -55 27 -68 31 -20 51 -66 60 -136 6 -51 11 -61 53 -100
47 -43 47 -43 53 -123 24 -292 30 -353 40 -378 16 -39 5 -44 -27 -12 -32 32
-47 19 -38 -32 4 -24 2 -33 -7 -33 -7 0 -61 50 -121 112 l-108 112 0 51 c0 46
-4 56 -37 90 -29 30 -37 47 -41 86 -2 27 -8 49 -13 49 -20 0 -7 38 16 48 37
17 33 58 -10 106 -19 22 -40 56 -45 75 -15 51 -24 137 -16 156 6 16 8 16 32 0
22 -14 28 -15 35 -4 5 8 7 24 4 36 -3 12 -2 29 2 39 6 16 7 15 20 -2 11 -14
27 -19 66 -19z m1300 -925 c-6 -23 -19 -26 -26 -6 -6 15 12 38 24 31 4 -3 5
-14 2 -25z m40 -383 c37 -36 39 -39 27 -68 -19 -44 0 -59 42 -35 30 18 32 18
44 1 7 -10 15 -21 16 -24 2 -4 20 -17 41 -30 20 -12 37 -28 38 -34 6 -94 21
-140 59 -187 61 -76 66 -95 76 -329 6 -127 -3 -151 -58 -151 -30 0 -30 0 -28
-76 1 -29 -3 -55 -9 -59 -6 -3 -11 -3 -11 2 0 14 -54 69 -87 88 -18 11 -33 22
-33 25 0 13 -84 106 -111 123 -27 18 -29 23 -29 83 0 55 -4 69 -23 87 -12 12
-37 40 -54 63 -31 39 -32 45 -36 155 -2 63 -10 137 -16 164 -26 111 -28 101
28 136 l51 32 0 61 c0 60 0 60 17 36 9 -14 35 -42 56 -63z"/>
<path d="M3600 2786 c0 -9 5 -16 10 -16 6 0 10 4 10 9 0 6 -4 13 -10 16 -5 3
-10 -1 -10 -9z"/>
</g>
</svg>
